# xmcd
#
# Track frame offsets:
#	150
#	12680
#	28210
#	42185
#	55497
#	68945
#	81107
#	95472
#	111587
#	124127
#	139637
#	153600
#	166862
#	180247
#	192440
#	206825
#	234347
#
# Disc length: 3137 seconds
#
# Revision: 1
# Processed by: cddbd v1.5.2PL0 Copyright (c) Steve Scherf et al.
# Submitted via: audiograbber 1.83.01
#
DISCID=f20c3f11
DTITLE=George Jones - Sound Choice 2134
DYEAR=1900
DGENRE=
TTITLE0=George Jones - The One I Loved Back Then
TTITLE1=George Jones - A Good Year For The Roses
TTITLE2=George Jones - Still Doin Time
TTITLE3=George Jones - Just One More
TTITLE4=George Jones - The Door
TTITLE5=George Jones - Why Baby Why
TTITLE6=George Jones - The Window Up Above
TTITLE7=George Jones - Who's Gonna Fill Thier Shoes
TTITLE8=George Jones - The One I Loved Back Then w/ Vocals
TTITLE9=George Jones - A Good Year For The Roses w/ Vocals
TTITLE10=George Jones - Still Doin Time w/ vocals
TTITLE11=George Jones - Just One More w/ Vocals
TTITLE12=George Jones - The Door w/ Vocals
TTITLE13=George Jones - Why Baby Why w/ Vocals
TTITLE14=George Jones - The Window Up Above w/ Vocals
TTITLE15=George Jones - Who's Gonna Fill Thier Shoes w/ Vocals
TTITLE16=Data Tract - Data Track
EXTD=
EXTT0=
EXTT1=
EXTT2=
EXTT3=
EXTT4=
EXTT5=
EXTT6=
EXTT7=
EXTT8=
EXTT9=
EXTT10=
EXTT11=
EXTT12=
EXTT13=
EXTT14=
EXTT15=
EXTT16=
PLAYORDER=
